# xmcd
#
# Track frame offsets: 
#        150
#        15920
#        35607
#        54387
#        75070
#        96907
#        116855
#        131712
#        149647
#        176492
#        195682
#        216982
#        234982
#        255080
#        276392
#        298952
#        315587
#
# Disc length: 4508 seconds
#
# Revision: 1
# Processed by: cddbd v1.5.2PL0 Copyright (c) Steve Scherf et al.
# Submitted via: ExactAudioCopy v0.95b4
#
DISCID=f4119a11
DTITLE=Albert King - The Masters
DYEAR=2002
DGENRE=Blues
TTITLE0=Born under a bad sign
TTITLE1=The very thought of you
TTITLE2=Cold women with warm hearts
TTITLE3=Truck load of lovin'
TTITLE4=Hold hands with one another
TTITLE5=Cadillac assembly line
TTITLE6=We all wanna boogie
TTITLE7=I get evil
TTITLE8=Angel of mercy
TTITLE9=You upset me babe
TTITLE10=Let me rock you easy
TTITLE11=Love mechanic
TTITLE12=Call my job
TTITLE13=Good time Charly
TTITLE14=Nobody wants a loser
TTITLE15=Get out of my life
TTITLE16=The feeling
EXTD=
EXTT0=
EXTT1=
EXTT2=
EXTT3=
EXTT4=
EXTT5=
EXTT6=
EXTT7=
EXTT8=
EXTT9=
EXTT10=
EXTT11=
EXTT12=
EXTT13=
EXTT14=
EXTT15=
EXTT16=
PLAYORDER=
